<svg id="visual" viewBox="0 0 900 600" width="900" height="600" xmlns="http://www.w3.org/2000/svg" xmlns:xlink="http://www.w3.org/1999/xlink" version="1.1"><rect x="0" y="0" width="900" height="600" fill="#001220"></rect><path d="M0 386L21.5 388C43 390 86 394 128.8 394C171.7 394 214.3 390 257.2 389C300 388 343 390 385.8 398C428.7 406 471.3 420 514.2 425.3C557 430.7 600 427.3 642.8 429.5C685.7 431.7 728.3 439.3 771.2 429.2C814 419 857 391 878.5 377L900 363L900 601L878.5 601C857 601 814 601 771.2 601C728.3 601 685.7 601 642.8 601C600 601 557 601 514.2 601C471.3 601 428.7 601 385.8 601C343 601 300 601 257.2 601C214.3 601 171.7 601 128.8 601C86 601 43 601 21.5 601L0 601Z" fill="#f4f0e7"></path><path d="M0 416L21.5 424.2C43 432.3 86 448.7 128.8 446.2C171.7 443.7 214.3 422.3 257.2 412.2C300 402 343 403 385.8 406.2C428.7 409.3 471.3 414.7 514.2 427.2C557 439.7 600 459.3 642.8 459.7C685.7 460 728.3 441 771.2 437.5C814 434 857 446 878.5 452L900 458L900 601L878.5 601C857 601 814 601 771.2 601C728.3 601 685.7 601 642.8 601C600 601 557 601 514.2 601C471.3 601 428.7 601 385.8 601C343 601 300 601 257.2 601C214.3 601 171.7 601 128.8 601C86 601 43 601 21.5 601L0 601Z" fill="#ddd7cc"></path><path d="M0 451L21.5 460.8C43 470.7 86 490.3 128.8 499.5C171.7 508.7 214.3 507.3 257.2 499.7C300 492 343 478 385.8 468.5C428.7 459 471.3 454 514.2 449.8C557 445.7 600 442.3 642.8 450.2C685.7 458 728.3 477 771.2 477.5C814 478 857 460 878.5 451L900 442L900 601L878.5 601C857 601 814 601 771.2 601C728.3 601 685.7 601 642.8 601C600 601 557 601 514.2 601C471.3 601 428.7 601 385.8 601C343 601 300 601 257.2 601C214.3 601 171.7 601 128.8 601C86 601 43 601 21.5 601L0 601Z" fill="#c6bfb1"></path><path d="M0 492L21.5 492.3C43 492.7 86 493.3 128.8 501C171.7 508.7 214.3 523.3 257.2 522C300 520.7 343 503.3 385.8 499.7C428.7 496 471.3 506 514.2 513.3C557 520.7 600 525.3 642.8 526.7C685.7 528 728.3 526 771.2 528.2C814 530.3 857 536.7 878.5 539.8L900 543L900 601L878.5 601C857 601 814 601 771.2 601C728.3 601 685.7 601 642.8 601C600 601 557 601 514.2 601C471.3 601 428.7 601 385.8 601C343 601 300 601 257.2 601C214.3 601 171.7 601 128.8 601C86 601 43 601 21.5 601L0 601Z" fill="#b0a797"></path><path d="M0 533L21.5 539.5C43 546 86 559 128.8 563.3C171.7 567.7 214.3 563.3 257.2 563.2C300 563 343 567 385.8 566.5C428.7 566 471.3 561 514.2 560.7C557 560.3 600 564.7 642.8 564.8C685.7 565 728.3 561 771.2 560.3C814 559.7 857 562.3 878.5 563.7L900 565L900 601L878.5 601C857 601 814 601 771.2 601C728.3 601 685.7 601 642.8 601C600 601 557 601 514.2 601C471.3 601 428.7 601 385.8 601C343 601 300 601 257.2 601C214.3 601 171.7 601 128.8 601C86 601 43 601 21.5 601L0 601Z" fill="#9b907e"></path></svg>