<svg id="visual" viewBox="0 0 960 540" width="960" height="540" xmlns="http://www.w3.org/2000/svg" xmlns:xlink="http://www.w3.org/1999/xlink" version="1.1"><rect x="0" y="0" width="960" height="540" fill="#f1efe7"></rect><path d="M0 146L9.3 146C18.7 146 37.3 146 56.2 144.2C75 142.3 94 138.7 112.8 140.5C131.7 142.3 150.3 149.7 169.2 146.2C188 142.7 207 128.3 225.8 131.3C244.7 134.3 263.3 154.7 282.2 159.5C301 164.3 320 153.7 338.8 141.8C357.7 130 376.3 117 395.2 116.5C414 116 433 128 451.8 131.2C470.7 134.3 489.3 128.7 508.2 131.3C527 134 546 145 564.8 147.2C583.7 149.3 602.3 142.7 621.2 146C640 149.3 659 162.7 677.8 164.7C696.7 166.7 715.3 157.3 734.2 156.3C753 155.3 772 162.7 790.8 155.5C809.7 148.3 828.3 126.7 847.2 122.5C866 118.3 885 131.7 903.8 143.5C922.7 155.3 941.3 165.7 950.7 170.8L960 176L960 0L950.7 0C941.3 0 922.7 0 903.8 0C885 0 866 0 847.2 0C828.3 0 809.7 0 790.8 0C772 0 753 0 734.2 0C715.3 0 696.7 0 677.8 0C659 0 640 0 621.2 0C602.3 0 583.7 0 564.8 0C546 0 527 0 508.2 0C489.3 0 470.7 0 451.8 0C433 0 414 0 395.2 0C376.3 0 357.7 0 338.8 0C320 0 301 0 282.2 0C263.3 0 244.7 0 225.8 0C207 0 188 0 169.2 0C150.3 0 131.7 0 112.8 0C94 0 75 0 56.2 0C37.3 0 18.7 0 9.3 0L0 0Z" fill="#ddd9ce"></path><path d="M0 111L9.3 115.7C18.7 120.3 37.3 129.7 56.2 126C75 122.3 94 105.7 112.8 102.8C131.7 100 150.3 111 169.2 112.2C188 113.3 207 104.7 225.8 100.2C244.7 95.7 263.3 95.3 282.2 93.7C301 92 320 89 338.8 92.8C357.7 96.7 376.3 107.3 395.2 107.7C414 108 433 98 451.8 96.3C470.7 94.7 489.3 101.3 508.2 103.7C527 106 546 104 564.8 107.8C583.7 111.7 602.3 121.3 621.2 122.8C640 124.3 659 117.7 677.8 111C696.7 104.3 715.3 97.7 734.2 97.5C753 97.3 772 103.7 790.8 101.5C809.7 99.3 828.3 88.7 847.2 92.5C866 96.3 885 114.7 903.8 124.5C922.7 134.3 941.3 135.7 950.7 136.3L960 137L960 0L950.7 0C941.3 0 922.7 0 903.8 0C885 0 866 0 847.2 0C828.3 0 809.7 0 790.8 0C772 0 753 0 734.2 0C715.3 0 696.7 0 677.8 0C659 0 640 0 621.2 0C602.3 0 583.7 0 564.8 0C546 0 527 0 508.2 0C489.3 0 470.7 0 451.8 0C433 0 414 0 395.2 0C376.3 0 357.7 0 338.8 0C320 0 301 0 282.2 0C263.3 0 244.7 0 225.8 0C207 0 188 0 169.2 0C150.3 0 131.7 0 112.8 0C94 0 75 0 56.2 0C37.3 0 18.7 0 9.3 0L0 0Z" fill="#c6c0b2"></path><path d="M0 59L9.3 65.5C18.7 72 37.3 85 56.2 88.3C75 91.7 94 85.3 112.8 78.3C131.7 71.3 150.3 63.7 169.2 62.3C188 61 207 66 225.8 67.2C244.7 68.3 263.3 65.7 282.2 66.5C301 67.3 320 71.7 338.8 70.7C357.7 69.7 376.3 63.3 395.2 63C414 62.7 433 68.3 451.8 72.7C470.7 77 489.3 80 508.2 80.7C527 81.3 546 79.7 564.8 74.8C583.7 70 602.3 62 621.2 58.3C640 54.7 659 55.3 677.8 58C696.7 60.7 715.3 65.3 734.2 71.5C753 77.7 772 85.3 790.8 87.5C809.7 89.7 828.3 86.3 847.2 79.5C866 72.7 885 62.3 903.8 63.8C922.7 65.3 941.3 78.7 950.7 85.3L960 92L960 0L950.7 0C941.3 0 922.7 0 903.8 0C885 0 866 0 847.2 0C828.3 0 809.7 0 790.8 0C772 0 753 0 734.2 0C715.3 0 696.7 0 677.8 0C659 0 640 0 621.2 0C602.3 0 583.7 0 564.8 0C546 0 527 0 508.2 0C489.3 0 470.7 0 451.8 0C433 0 414 0 395.2 0C376.3 0 357.7 0 338.8 0C320 0 301 0 282.2 0C263.3 0 244.7 0 225.8 0C207 0 188 0 169.2 0C150.3 0 131.7 0 112.8 0C94 0 75 0 56.2 0C37.3 0 18.7 0 9.3 0L0 0Z" fill="#b0a898"></path><path d="M0 28L9.3 29.2C18.7 30.3 37.3 32.7 56.2 38.5C75 44.3 94 53.7 112.8 51.7C131.7 49.7 150.3 36.3 169.2 34.7C188 33 207 43 225.8 47.5C244.7 52 263.3 51 282.2 49.7C301 48.3 320 46.7 338.8 47.7C357.7 48.7 376.3 52.3 395.2 51.7C414 51 433 46 451.8 45.7C470.7 45.3 489.3 49.7 508.2 49.2C527 48.7 546 43.3 564.8 43.5C583.7 43.7 602.3 49.3 621.2 49.8C640 50.3 659 45.7 677.8 45.7C696.7 45.7 715.3 50.3 734.2 47.3C753 44.3 772 33.7 790.8 34.8C809.7 36 828.3 49 847.2 52.8C866 56.7 885 51.3 903.8 45.5C922.7 39.7 941.3 33.3 950.7 30.2L960 27L960 0L950.7 0C941.3 0 922.7 0 903.8 0C885 0 866 0 847.2 0C828.3 0 809.7 0 790.8 0C772 0 753 0 734.2 0C715.3 0 696.7 0 677.8 0C659 0 640 0 621.2 0C602.3 0 583.7 0 564.8 0C546 0 527 0 508.2 0C489.3 0 470.7 0 451.8 0C433 0 414 0 395.2 0C376.3 0 357.7 0 338.8 0C320 0 301 0 282.2 0C263.3 0 244.7 0 225.8 0C207 0 188 0 169.2 0C150.3 0 131.7 0 112.8 0C94 0 75 0 56.2 0C37.3 0 18.7 0 9.3 0L0 0Z" fill="#9b907e"></path></svg>