<svg id="visual" viewBox="0 0 960 540" width="960" height="540" xmlns="http://www.w3.org/2000/svg" xmlns:xlink="http://www.w3.org/1999/xlink" version="1.1"><rect x="0" y="0" width="960" height="540" fill="#ddd9ce"></rect><path d="M0 172L9.3 185.3C18.7 198.7 37.3 225.3 56.2 235.7C75 246 94 240 112.8 235.5C131.7 231 150.3 228 169.2 227.8C188 227.7 207 230.3 225.8 225.7C244.7 221 263.3 209 282.2 200.5C301 192 320 187 338.8 183.2C357.7 179.3 376.3 176.7 395.2 177.3C414 178 433 182 451.8 186.2C470.7 190.3 489.3 194.7 508.2 193C527 191.3 546 183.7 564.8 182.8C583.7 182 602.3 188 621.2 203.7C640 219.3 659 244.7 677.8 248C696.7 251.3 715.3 232.7 734.2 232.7C753 232.7 772 251.3 790.8 248C809.7 244.7 828.3 219.3 847.2 215.2C866 211 885 228 903.8 236C922.7 244 941.3 243 950.7 242.5L960 242L960 0L950.7 0C941.3 0 922.7 0 903.8 0C885 0 866 0 847.2 0C828.3 0 809.7 0 790.8 0C772 0 753 0 734.2 0C715.3 0 696.7 0 677.8 0C659 0 640 0 621.2 0C602.3 0 583.7 0 564.8 0C546 0 527 0 508.2 0C489.3 0 470.7 0 451.8 0C433 0 414 0 395.2 0C376.3 0 357.7 0 338.8 0C320 0 301 0 282.2 0C263.3 0 244.7 0 225.8 0C207 0 188 0 169.2 0C150.3 0 131.7 0 112.8 0C94 0 75 0 56.2 0C37.3 0 18.7 0 9.3 0L0 0Z" fill="#ddd9ce"></path><path d="M0 184L9.3 179.2C18.7 174.3 37.3 164.7 56.2 165.3C75 166 94 177 112.8 187.7C131.7 198.3 150.3 208.7 169.2 204.5C188 200.3 207 181.7 225.8 172C244.7 162.3 263.3 161.7 282.2 171.3C301 181 320 201 338.8 206.2C357.7 211.3 376.3 201.7 395.2 192C414 182.3 433 172.7 451.8 172C470.7 171.3 489.3 179.7 508.2 175.8C527 172 546 156 564.8 157C583.7 158 602.3 176 621.2 181C640 186 659 178 677.8 176.2C696.7 174.3 715.3 178.7 734.2 178.2C753 177.7 772 172.3 790.8 169C809.7 165.7 828.3 164.3 847.2 172.3C866 180.3 885 197.7 903.8 194.8C922.7 192 941.3 169 950.7 157.5L960 146L960 0L950.7 0C941.3 0 922.7 0 903.8 0C885 0 866 0 847.2 0C828.3 0 809.7 0 790.8 0C772 0 753 0 734.2 0C715.3 0 696.7 0 677.8 0C659 0 640 0 621.2 0C602.3 0 583.7 0 564.8 0C546 0 527 0 508.2 0C489.3 0 470.7 0 451.8 0C433 0 414 0 395.2 0C376.3 0 357.7 0 338.8 0C320 0 301 0 282.2 0C263.3 0 244.7 0 225.8 0C207 0 188 0 169.2 0C150.3 0 131.7 0 112.8 0C94 0 75 0 56.2 0C37.3 0 18.7 0 9.3 0L0 0Z" fill="#cfcabd"></path><path d="M0 129L9.3 135.2C18.7 141.3 37.3 153.7 56.2 156C75 158.3 94 150.7 112.8 141.3C131.7 132 150.3 121 169.2 126.2C188 131.3 207 152.7 225.8 156C244.7 159.3 263.3 144.7 282.2 147C301 149.3 320 168.7 338.8 177.3C357.7 186 376.3 184 395.2 175.5C414 167 433 152 451.8 140.7C470.7 129.3 489.3 121.7 508.2 124.8C527 128 546 142 564.8 149.7C583.7 157.3 602.3 158.7 621.2 154.7C640 150.7 659 141.3 677.8 133.5C696.7 125.7 715.3 119.3 734.2 127.7C753 136 772 159 790.8 164.3C809.7 169.7 828.3 157.3 847.2 151.8C866 146.3 885 147.7 903.8 149C922.7 150.3 941.3 151.7 950.7 152.3L960 153L960 0L950.7 0C941.3 0 922.7 0 903.8 0C885 0 866 0 847.2 0C828.3 0 809.7 0 790.8 0C772 0 753 0 734.2 0C715.3 0 696.7 0 677.8 0C659 0 640 0 621.2 0C602.3 0 583.7 0 564.8 0C546 0 527 0 508.2 0C489.3 0 470.7 0 451.8 0C433 0 414 0 395.2 0C376.3 0 357.7 0 338.8 0C320 0 301 0 282.2 0C263.3 0 244.7 0 225.8 0C207 0 188 0 169.2 0C150.3 0 131.7 0 112.8 0C94 0 75 0 56.2 0C37.3 0 18.7 0 9.3 0L0 0Z" fill="#c2bbad"></path><path d="M0 137L9.3 129C18.7 121 37.3 105 56.2 104.8C75 104.7 94 120.3 112.8 124.5C131.7 128.7 150.3 121.3 169.2 113C188 104.7 207 95.3 225.8 98.3C244.7 101.3 263.3 116.7 282.2 118.2C301 119.7 320 107.3 338.8 107.7C357.7 108 376.3 121 395.2 123.5C414 126 433 118 451.8 111.7C470.7 105.3 489.3 100.7 508.2 104.8C527 109 546 122 564.8 120.3C583.7 118.7 602.3 102.3 621.2 100.3C640 98.3 659 110.7 677.8 118.7C696.7 126.7 715.3 130.3 734.2 128.5C753 126.7 772 119.3 790.8 120.2C809.7 121 828.3 130 847.2 125.8C866 121.7 885 104.3 903.8 95.7C922.7 87 941.3 87 950.7 87L960 87L960 0L950.7 0C941.3 0 922.7 0 903.8 0C885 0 866 0 847.2 0C828.3 0 809.7 0 790.8 0C772 0 753 0 734.2 0C715.3 0 696.7 0 677.8 0C659 0 640 0 621.2 0C602.3 0 583.7 0 564.8 0C546 0 527 0 508.2 0C489.3 0 470.7 0 451.8 0C433 0 414 0 395.2 0C376.3 0 357.7 0 338.8 0C320 0 301 0 282.2 0C263.3 0 244.7 0 225.8 0C207 0 188 0 169.2 0C150.3 0 131.7 0 112.8 0C94 0 75 0 56.2 0C37.3 0 18.7 0 9.3 0L0 0Z" fill="#b4ad9d"></path><path d="M0 102L9.3 99C18.7 96 37.3 90 56.2 85.3C75 80.7 94 77.3 112.8 80C131.7 82.7 150.3 91.3 169.2 88.8C188 86.3 207 72.7 225.8 68C244.7 63.3 263.3 67.7 282.2 70.2C301 72.7 320 73.3 338.8 77.2C357.7 81 376.3 88 395.2 89.3C414 90.7 433 86.3 451.8 82.3C470.7 78.3 489.3 74.7 508.2 71C527 67.3 546 63.7 564.8 61.7C583.7 59.7 602.3 59.3 621.2 62.2C640 65 659 71 677.8 75.7C696.7 80.3 715.3 83.7 734.2 86.7C753 89.7 772 92.3 790.8 90.7C809.7 89 828.3 83 847.2 84.7C866 86.3 885 95.7 903.8 99.2C922.7 102.7 941.3 100.3 950.7 99.2L960 98L960 0L950.7 0C941.3 0 922.7 0 903.8 0C885 0 866 0 847.2 0C828.3 0 809.7 0 790.8 0C772 0 753 0 734.2 0C715.3 0 696.7 0 677.8 0C659 0 640 0 621.2 0C602.3 0 583.7 0 564.8 0C546 0 527 0 508.2 0C489.3 0 470.7 0 451.8 0C433 0 414 0 395.2 0C376.3 0 357.7 0 338.8 0C320 0 301 0 282.2 0C263.3 0 244.7 0 225.8 0C207 0 188 0 169.2 0C150.3 0 131.7 0 112.8 0C94 0 75 0 56.2 0C37.3 0 18.7 0 9.3 0L0 0Z" fill="#a89e8d"></path><path d="M0 55L9.3 52.2C18.7 49.3 37.3 43.7 56.2 38.8C75 34 94 30 112.8 32.7C131.7 35.3 150.3 44.7 169.2 49.2C188 53.7 207 53.3 225.8 53.3C244.7 53.3 263.3 53.7 282.2 55.8C301 58 320 62 338.8 63.3C357.7 64.7 376.3 63.3 395.2 59.2C414 55 433 48 451.8 48.2C470.7 48.3 489.3 55.7 508.2 54.7C527 53.7 546 44.3 564.8 45.2C583.7 46 602.3 57 621.2 61C640 65 659 62 677.8 61.3C696.7 60.7 715.3 62.3 734.2 59.3C753 56.3 772 48.7 790.8 44.2C809.7 39.7 828.3 38.3 847.2 39.5C866 40.7 885 44.3 903.8 42.7C922.7 41 941.3 34 950.7 30.5L960 27L960 0L950.7 0C941.3 0 922.7 0 903.8 0C885 0 866 0 847.2 0C828.3 0 809.7 0 790.8 0C772 0 753 0 734.2 0C715.3 0 696.7 0 677.8 0C659 0 640 0 621.2 0C602.3 0 583.7 0 564.8 0C546 0 527 0 508.2 0C489.3 0 470.7 0 451.8 0C433 0 414 0 395.2 0C376.3 0 357.7 0 338.8 0C320 0 301 0 282.2 0C263.3 0 244.7 0 225.8 0C207 0 188 0 169.2 0C150.3 0 131.7 0 112.8 0C94 0 75 0 56.2 0C37.3 0 18.7 0 9.3 0L0 0Z" fill="#9b907e"></path></svg>