<svg id="visual" viewBox="0 0 960 540" width="960" height="540" xmlns="http://www.w3.org/2000/svg" xmlns:xlink="http://www.w3.org/1999/xlink" version="1.1"><rect x="0" y="0" width="960" height="540" fill="#9b907e"></rect><path d="M0 154L17.8 158.3C35.7 162.7 71.3 171.3 106.8 169.2C142.3 167 177.7 154 213.2 149.3C248.7 144.7 284.3 148.3 320 158.7C355.7 169 391.3 186 426.8 185.8C462.3 185.7 497.7 168.3 533.2 164.5C568.7 160.7 604.3 170.3 640 177.7C675.7 185 711.3 190 746.8 188.8C782.3 187.7 817.7 180.3 853.2 177.3C888.7 174.3 924.3 175.7 942.2 176.3L960 177L960 0L942.2 0C924.3 0 888.7 0 853.2 0C817.7 0 782.3 0 746.8 0C711.3 0 675.7 0 640 0C604.3 0 568.7 0 533.2 0C497.7 0 462.3 0 426.8 0C391.3 0 355.7 0 320 0C284.3 0 248.7 0 213.2 0C177.7 0 142.3 0 106.8 0C71.3 0 35.7 0 17.8 0L0 0Z" fill="#bab1a4"></path><path d="M0 145L17.8 141.8C35.7 138.7 71.3 132.3 106.8 128.8C142.3 125.3 177.7 124.7 213.2 130.2C248.7 135.7 284.3 147.3 320 145.7C355.7 144 391.3 129 426.8 121C462.3 113 497.7 112 533.2 116.7C568.7 121.3 604.3 131.7 640 131.5C675.7 131.3 711.3 120.7 746.8 116.3C782.3 112 817.7 114 853.2 115.2C888.7 116.3 924.3 116.7 942.2 116.8L960 117L960 0L942.2 0C924.3 0 888.7 0 853.2 0C817.7 0 782.3 0 746.8 0C711.3 0 675.7 0 640 0C604.3 0 568.7 0 533.2 0C497.7 0 462.3 0 426.8 0C391.3 0 355.7 0 320 0C284.3 0 248.7 0 213.2 0C177.7 0 142.3 0 106.8 0C71.3 0 35.7 0 17.8 0L0 0Z" fill="#aaa091"></path><path d="M0 116L17.8 110.7C35.7 105.3 71.3 94.7 106.8 88.8C142.3 83 177.7 82 213.2 82C248.7 82 284.3 83 320 91.3C355.7 99.7 391.3 115.3 426.8 118.7C462.3 122 497.7 113 533.2 110.5C568.7 108 604.3 112 640 106C675.7 100 711.3 84 746.8 85.8C782.3 87.7 817.7 107.3 853.2 112.5C888.7 117.7 924.3 108.3 942.2 103.7L960 99L960 0L942.2 0C924.3 0 888.7 0 853.2 0C817.7 0 782.3 0 746.8 0C711.3 0 675.7 0 640 0C604.3 0 568.7 0 533.2 0C497.7 0 462.3 0 426.8 0C391.3 0 355.7 0 320 0C284.3 0 248.7 0 213.2 0C177.7 0 142.3 0 106.8 0C71.3 0 35.7 0 17.8 0L0 0Z" fill="#9b907e"></path><path d="M0 80L17.8 80.8C35.7 81.7 71.3 83.3 106.8 82.2C142.3 81 177.7 77 213.2 78.2C248.7 79.3 284.3 85.7 320 83.7C355.7 81.7 391.3 71.3 426.8 62.8C462.3 54.3 497.7 47.7 533.2 53.2C568.7 58.7 604.3 76.3 640 79.7C675.7 83 711.3 72 746.8 64.8C782.3 57.7 817.7 54.3 853.2 55.3C888.7 56.3 924.3 61.7 942.2 64.3L960 67L960 0L942.2 0C924.3 0 888.7 0 853.2 0C817.7 0 782.3 0 746.8 0C711.3 0 675.7 0 640 0C604.3 0 568.7 0 533.2 0C497.7 0 462.3 0 426.8 0C391.3 0 355.7 0 320 0C284.3 0 248.7 0 213.2 0C177.7 0 142.3 0 106.8 0C71.3 0 35.7 0 17.8 0L0 0Z" fill="#867c6d"></path><path d="M0 24L17.8 30.3C35.7 36.7 71.3 49.3 106.8 51.3C142.3 53.3 177.7 44.7 213.2 42C248.7 39.3 284.3 42.7 320 38.3C355.7 34 391.3 22 426.8 19C462.3 16 497.7 22 533.2 25.2C568.7 28.3 604.3 28.7 640 32.7C675.7 36.7 711.3 44.3 746.8 44.3C782.3 44.3 817.7 36.7 853.2 32.8C888.7 29 924.3 29 942.2 29L960 29L960 0L942.2 0C924.3 0 888.7 0 853.2 0C817.7 0 782.3 0 746.8 0C711.3 0 675.7 0 640 0C604.3 0 568.7 0 533.2 0C497.7 0 462.3 0 426.8 0C391.3 0 355.7 0 320 0C284.3 0 248.7 0 213.2 0C177.7 0 142.3 0 106.8 0C71.3 0 35.7 0 17.8 0L0 0Z" fill="#72695c"></path></svg>